<svg xmlns="http://www.w3.org/2000/svg" version="1.1" viewBox="0 0 100 125" x="0px" y="0px"><path fill='#fff' d="M39.994,64.961c-4.237,0-7.671,3.436-7.671,7.671c0,4.231,3.43,7.664,7.671,7.664c4.238,0,7.671-3.433,7.671-7.664  C47.665,68.396,44.229,64.961,39.994,64.961z"/><path fill='#fff' d="M79.42,64.961c-4.235,0-7.678,3.436-7.671,7.671c0,4.231,3.436,7.664,7.671,7.664c4.242,0,7.67-3.433,7.67-7.664  C87.09,68.396,83.655,64.961,79.42,64.961z"/><path fill='#fff' d="M34.751,61.247c-1.579,0-3.018-0.932-3.659-2.386l-10.548-23.91l-6.174-7.849H9c-2.209,0-4-1.791-4-4s1.791-4,4-4h7.312  c1.227,0,2.386,0.562,3.144,1.527l7.67,9.749l63.689-2.608c1.303-0.05,2.566,0.54,3.357,1.588c0.79,1.048,1.017,2.417,0.604,3.663  l-7.812,23.656c-0.523,1.587-1.978,2.681-3.647,2.743l-48.416,1.823C34.852,61.246,34.802,61.247,34.751,61.247z"/></svg>